<svg width="24" height="24" viewBox="0 0 24 24" fill="none" xmlns="http://www.w3.org/2000/svg">
<path d="M12 2C12.24 2 12.47 2.05 12.7 2.14C12.93 2.24 13.14 2.37 13.33 2.54L15.19 4.38H17.71C18.24 4.38 18.69 4.57 19.06 4.94C19.43 5.31 19.62 5.76 19.62 6.29V8.8L21.45 10.66C21.63 10.85 21.76 11.06 21.85 11.29C21.95 11.52 22 11.75 22 11.99C22 12.23 21.95 12.46 21.86 12.69C21.76 12.92 21.63 13.13 21.46 13.32L19.62 15.18V17.7C19.62 18.23 19.43 18.68 19.06 19.05C18.69 19.42 18.24 19.61 17.71 19.61H15.2L13.34 21.44C13.15 21.62 12.94 21.75 12.71 21.84C12.47 21.96 12.24 22 12 22C11.76 22 11.53 21.95 11.3 21.86C11.07 21.76 10.86 21.63 10.67 21.46L8.8 19.61H6.29C5.76 19.61 5.31 19.42 4.94 19.05C4.57 18.68 4.38 18.23 4.38 17.7V15.2L2.55 13.34C2.37 13.15 2.24 12.94 2.15 12.71C2.04 12.47 2 12.24 2 12C2 11.76 2.05 11.53 2.14 11.3C2.24 11.07 2.37 10.86 2.54 10.67L4.39 8.8V6.29C4.39 5.76 4.58 5.31 4.95 4.94C5.32 4.57 5.77 4.38 6.3 4.38H8.8L10.66 2.55C10.85 2.37 11.06 2.24 11.29 2.15C11.53 2.04 11.76 2 12 2ZM12.03 7.24C11.73 7.24 11.45 7.33 11.22 7.5C10.98 7.67 10.8 7.9 10.69 8.17L8.26 14.57C8.14 14.87 8.17 15.16 8.37 15.42C8.57 15.68 8.83 15.81 9.15 15.81C9.35 15.81 9.53 15.75 9.69 15.63C9.85 15.51 9.96 15.36 10.03 15.19L10.5 13.81H13.55L14.03 15.19C14.11 15.39 14.23 15.53 14.38 15.64C14.54 15.75 14.72 15.81 14.91 15.81C15.22 15.81 15.48 15.68 15.68 15.41C15.88 15.16 15.92 14.87 15.78 14.57L13.36 8.17C13.25 7.9 13.07 7.67 12.84 7.5C12.6 7.33 12.33 7.24 12.03 7.24ZM12.96 12.14H11.12L12.02 9.43L12.96 12.14Z" fill="#808080"/>
</svg>
