<svg width="24" height="24" viewBox="0 0 24 24" fill="none" xmlns="http://www.w3.org/2000/svg">
<path d="M12 1C12.67 1 13.26 1.19 13.79 1.56C14.31 1.94 14.67 2.42 14.85 3H19C19.55 3 20.02 3.2 20.41 3.59C20.81 3.98 21 4.45 21 5V9C21 9.28 20.9 9.52 20.71 9.71C20.52 9.91 20.28 10 20 10C19.72 10 19.48 9.9 19.29 9.71C19.09 9.52 19 9.28 19 9V5H17V7C17 7.28 16.9 7.52 16.71 7.71C16.52 7.91 16.28 8 16 8H8C7.72 8 7.48 7.9 7.29 7.71C7.09 7.52 7 7.28 7 7V5H5V19H9.5C9.78 19 10.02 19.1 10.21 19.29C10.41 19.48 10.5 19.72 10.5 20C10.5 20.28 10.4 20.52 10.21 20.71C10.02 20.91 9.78 21 9.5 21H5C4.45 21 3.98 20.8 3.59 20.41C3.19 20.02 3 19.55 3 19V5C3 4.45 3.2 3.98 3.59 3.59C3.98 3.19 4.45 3 5 3H9.17C9.36 2.42 9.72 1.94 10.25 1.56C10.78 1.2 11.37 1 12 1ZM17.14 11C17.31 11 17.46 11.06 17.59 11.19C17.72 11.31 17.79 11.46 17.79 11.63V12.25H20.04C20.31 12.25 20.54 12.34 20.73 12.52C20.91 12.69 21 12.92 21 13.19C21 13.46 20.9 13.69 20.73 13.86C20.54 14.04 20.31 14.12 20.03 14.13H19.71V19.13C19.71 19.65 19.53 20.09 19.15 20.45C18.78 20.82 18.32 21 17.8 21H15.2C14.67 21 14.21 20.82 13.84 20.45C13.46 20.09 13.28 19.65 13.28 19.13V14.13H12.95C12.68 14.13 12.45 14.03 12.26 13.86C12.08 13.68 11.99 13.46 11.99 13.19C11.99 12.92 12.09 12.69 12.26 12.52C12.45 12.34 12.68 12.25 12.96 12.25H15.2V11.62C15.2 11.46 15.27 11.32 15.4 11.19C15.53 11.06 15.69 11 15.86 11H17.14ZM12 3C11.72 3 11.48 3.1 11.29 3.29C11.09 3.48 11 3.72 11 4C11 4.28 11.1 4.52 11.29 4.71C11.48 4.91 11.72 5 12 5C12.28 5 12.52 4.9 12.71 4.71C12.91 4.52 13 4.28 13 4C13 3.72 12.9 3.48 12.71 3.29C12.52 3.09 12.28 3 12 3Z" fill="#9198A0"/>
</svg>
