<svg width="24" height="24" viewBox="0 0 24 24" fill="none" xmlns="http://www.w3.org/2000/svg">
<path fill-rule="evenodd" clip-rule="evenodd" d="M12 23C11.76 23 11.53 22.94 11.32 22.82C11.12 22.7 10.94 22.52 10.81 22.31C10.04 21.08 8.85 19.11 7.85 17.17C7.35 16.19 6.9 15.22 6.56 14.34C6.23 13.5 6 12.67 6 12L6.01 11.75C6.03 11.45 6.1 11.13 6.19 10.8C6.29 10.43 6.41 10.05 6.56 9.65C6.9 8.78 7.36 7.8 7.86 6.83C8.6 5.38 9.46 3.9 10.16 2.73L10.81 1.69L10.91 1.54L11.04 1.4C11.12 1.32 11.22 1.24 11.32 1.18C11.48 1.09 11.65 1.03 11.82 1.01L12 1C12.24 1 12.47 1.06 12.67 1.19L12.82 1.29C12.97 1.39 13.09 1.54 13.19 1.69C13.67 2.47 14.31 3.53 14.97 4.69L15.37 5.41L16.14 6.86L16.51 7.59L16.85 8.31C17.07 8.79 17.27 9.25 17.44 9.68C17.76 10.53 18 11.36 18 12C18 12.64 17.76 13.47 17.44 14.32C17.1 15.19 16.64 16.16 16.14 17.14C15.14 19.08 13.95 21.07 13.19 22.3C13.06 22.52 12.89 22.7 12.67 22.81C12.47 22.94 12.24 23 12 23ZM12 20.31C12.71 19.13 13.62 17.57 14.4 16.05C14.76 15.35 15.09 14.67 15.35 14.05L15.59 13.46C15.91 12.64 16 12.17 16 12H8C8 12.2 8.1 12.68 8.4 13.5C8.7 14.26 9.11 15.15 9.6 16.08C10.37 17.59 11.28 19.14 12 20.31Z" fill="#9198A0"/>
</svg>
