<svg width="24" height="24" viewBox="0 0 24 24" fill="none" xmlns="http://www.w3.org/2000/svg">
<path d="M5 21C4.72 21 4.48 20.9 4.29 20.71C4.09 20.52 4 20.28 4 20C4 19.72 4.1 19.48 4.29 19.29C4.48 19.09 4.72 19 5 19H19C19.28 19 19.52 19.1 19.71 19.29C19.91 19.48 20 19.72 20 20C20 20.28 19.9 20.52 19.71 20.71C19.52 20.91 19.28 21 19 21H5ZM8 17C6.9 17 5.96 16.6 5.17 15.82C4.4 15.04 4 14.1 4 13V5C4 4.45 4.2 3.98 4.59 3.59C4.98 3.19 5.45 3 6 3H20C20.55 3 21.02 3.2 21.41 3.59C21.81 3.98 22 4.45 22 5V8C22 8.55 21.8 9.02 21.41 9.41C21.02 9.81 20.55 10 20 10H18V13C18 14.1 17.6 15.04 16.82 15.82C16.04 16.61 15.1 17 14 17H8ZM18 8H20V5H18V8Z" fill="#808080"/>
</svg>
