<svg width="24" height="24" viewBox="0 0 24 24" fill="none" xmlns="http://www.w3.org/2000/svg">
<path d="M4 17C3.45 17 2.97917 16.8042 2.5875 16.4125C2.19583 16.0208 2 15.55 2 15V9C2 8.45 2.19583 7.97917 2.5875 7.5875C2.97917 7.19583 3.45 7 4 7H20C20.55 7 21.0208 7.19583 21.4125 7.5875C21.8042 7.97917 22 8.45 22 9V15C22 15.55 21.8042 16.0208 21.4125 16.4125C21.0208 16.8042 20.55 17 20 17H4ZM9.5 12H11V9H9.5C9.1 9 8.75 9.15 8.45 9.45C8.15 9.75 8 10.1 8 10.5C8 10.9 8.15 11.25 8.45 11.55C8.75 11.85 9.1 12 9.5 12ZM13 12H14.5C14.9 12 15.25 11.85 15.55 11.55C15.85 11.25 16 10.9 16 10.5C16 10.1 15.85 9.75 15.55 9.45C15.25 9.15 14.9 9 14.5 9H13V12Z" fill="#808080"/>
</svg>
