<svg width="24" height="24" viewBox="0 0 24 24" fill="none" xmlns="http://www.w3.org/2000/svg">
<path d="M7 15C7.28333 15 7.52083 14.9042 7.7125 14.7125C7.90417 14.5208 8 14.2833 8 14V10C8 9.71667 7.90417 9.47917 7.7125 9.2875C7.52083 9.09583 7.28333 9 7 9C6.71667 9 6.47917 9.09583 6.2875 9.2875C6.09583 9.47917 6 9.71667 6 10V14C6 14.2833 6.09583 14.5208 6.2875 14.7125C6.47917 14.9042 6.71667 15 7 15ZM12 15C12.2833 15 12.5208 14.9042 12.7125 14.7125C12.9042 14.5208 13 14.2833 13 14V10C13 9.71667 12.9042 9.47917 12.7125 9.2875C12.5208 9.09583 12.2833 9 12 9C11.7167 9 11.4792 9.09583 11.2875 9.2875C11.0958 9.47917 11 9.71667 11 10V14C11 14.2833 11.0958 14.5208 11.2875 14.7125C11.4792 14.9042 11.7167 15 12 15ZM17 15C17.2833 15 17.5208 14.9042 17.7125 14.7125C17.9042 14.5208 18 14.2833 18 14V10C18 9.71667 17.9042 9.47917 17.7125 9.2875C17.5208 9.09583 17.2833 9 17 9C16.7167 9 16.4792 9.09583 16.2875 9.2875C16.0958 9.47917 16 9.71667 16 10V14C16 14.2833 16.0958 14.5208 16.2875 14.7125C16.4792 14.9042 16.7167 15 17 15ZM4 19C3.45 19 2.97917 18.8042 2.5875 18.4125C2.19583 18.0208 2 17.55 2 17V7C2 6.45 2.19583 5.97917 2.5875 5.5875C2.97917 5.19583 3.45 5 4 5H5V4C5 3.71667 5.09583 3.47917 5.2875 3.2875C5.47917 3.09583 5.71667 3 6 3C6.28333 3 6.52083 3.09583 6.7125 3.2875C6.90417 3.47917 7 3.71667 7 4V5H11V4C11 3.71667 11.0958 3.47917 11.2875 3.2875C11.4792 3.09583 11.7167 3 12 3C12.2833 3 12.5208 3.09583 12.7125 3.2875C12.9042 3.47917 13 3.71667 13 4V5H17V4C17 3.71667 17.0958 3.47917 17.2875 3.2875C17.4792 3.09583 17.7167 3 18 3C18.2833 3 18.5208 3.09583 18.7125 3.2875C18.9042 3.47917 19 3.71667 19 4V5H20C20.55 5 21.0208 5.19583 21.4125 5.5875C21.8042 5.97917 22 6.45 22 7V17C22 17.55 21.8042 18.0208 21.4125 18.4125C21.0208 18.8042 20.55 19 20 19H19V20C19 20.2833 18.9042 20.5208 18.7125 20.7125C18.5208 20.9042 18.2833 21 18 21C17.7167 21 17.4792 20.9042 17.2875 20.7125C17.0958 20.5208 17 20.2833 17 20V19H13V20C13 20.2833 12.9042 20.5208 12.7125 20.7125C12.5208 20.9042 12.2833 21 12 21C11.7167 21 11.4792 20.9042 11.2875 20.7125C11.0958 20.5208 11 20.2833 11 20V19H7V20C7 20.2833 6.90417 20.5208 6.7125 20.7125C6.52083 20.9042 6.28333 21 6 21C5.71667 21 5.47917 20.9042 5.2875 20.7125C5.09583 20.5208 5 20.2833 5 20V19H4Z" fill="#9198A0"/>
</svg>
