<svg width="24" height="24" viewBox="0 0 24 24" fill="none" xmlns="http://www.w3.org/2000/svg">
<path d="M14.44 16.56C14.14 16.27 14 15.92 14 15.5V6.5C14 6.08 14.15 5.73 14.44 5.44C14.73 5.14 15.08 5 15.5 5C15.92 5 16.27 5.15 16.56 5.44C16.86 5.73 17 6.08 17 6.5V15.5C17 15.92 16.85 16.27 16.56 16.56C16.27 16.86 15.92 17 15.5 17C15.08 17 14.73 16.85 14.44 16.56ZM20.5 14C20.08 14 19.73 13.85 19.44 13.56C19.14 13.27 19 12.92 19 12.5V9.5C19 9.08 19.15 8.73 19.44 8.44C19.73 8.14 20.08 8 20.5 8C20.92 8 21.27 8.15 21.56 8.44C21.86 8.73 22 9.08 22 9.5V12.5C22 12.92 21.85 13.27 21.56 13.56C21.27 13.86 20.92 14 20.5 14ZM6.5 22C4.97 22 3.67 21.47 2.6 20.4C1.53 19.33 1 18.03 1 16.5C1 14.97 1.53 13.67 2.6 12.6C3.67 11.53 4.97 11 6.5 11C6.95 11 7.38 11.05 7.8 11.16C8.22 11.27 8.62 11.42 9 11.6V3.5C9 3.08 9.15 2.73 9.44 2.44C9.73 2.14 10.08 2 10.5 2C10.92 2 11.27 2.15 11.56 2.44C11.86 2.73 12 3.08 12 3.5V16.5C12 18.03 11.47 19.33 10.4 20.4C9.33 21.47 8.03 22 6.5 22Z" fill="#808080"/>
</svg>
