<svg width="24" height="24" viewBox="0 0 24 24" fill="none" xmlns="http://www.w3.org/2000/svg">
<path d="M1.0501 10.05C0.750095 9.75 0.608428 9.3875 0.625095 8.9625C0.641762 8.5375 0.816762 8.19167 1.1501 7.925C1.9001 7.325 2.6876 6.77917 3.5126 6.2875C4.3376 5.79583 5.20843 5.38333 6.1251 5.05C7.04176 4.71667 7.9751 4.4625 8.9251 4.2875C9.8751 4.1125 10.8334 4.01667 11.8001 4C12.2001 4 12.5293 4.15417 12.7876 4.4625C13.0459 4.77083 13.1501 5.13333 13.1001 5.55C13.0501 5.96667 12.8668 6.30833 12.5501 6.575C12.2334 6.84167 11.8584 6.98333 11.4251 7C10.7084 7.03333 10.0043 7.12083 9.3126 7.2625C8.62093 7.40417 7.94176 7.59167 7.2751 7.825C6.5251 8.09167 5.8126 8.41667 5.1376 8.8C4.4626 9.18333 3.8251 9.61667 3.2251 10.1C2.89176 10.3667 2.51676 10.4958 2.1001 10.4875C1.68343 10.4792 1.33343 10.3333 1.0501 10.05ZM7.4751 14.425C7.0251 14.7583 6.59593 14.875 6.1876 14.775C5.77926 14.675 5.45843 14.4833 5.2251 14.2C4.99176 13.9167 4.8751 13.5833 4.8751 13.2C4.8751 12.8167 5.04176 12.4917 5.3751 12.225C5.90843 11.8083 6.47926 11.4542 7.0876 11.1625C7.69593 10.8708 8.31676 10.6333 8.9501 10.45C9.41676 10.3167 9.80843 10.3625 10.1251 10.5875C10.4418 10.8125 10.6584 11.1 10.7751 11.45C10.8918 11.8 10.8793 12.1583 10.7376 12.525C10.5959 12.8917 10.2834 13.15 9.8001 13.3C9.38343 13.4333 8.97926 13.5917 8.5876 13.775C8.19593 13.9583 7.8251 14.175 7.4751 14.425ZM11.3001 19.85C10.7668 19.6667 10.3751 19.3125 10.1251 18.7875C9.8751 18.2625 9.86676 17.7667 10.1001 17.3L16.1001 5.1C16.1668 4.96667 16.2626 4.87917 16.3876 4.8375C16.5126 4.79583 16.6501 4.8 16.8001 4.85C16.9334 4.9 17.0334 4.9875 17.1001 5.1125C17.1668 5.2375 17.1834 5.36667 17.1501 5.5L13.9001 18.65C13.7668 19.1833 13.4376 19.5708 12.9126 19.8125C12.3876 20.0542 11.8501 20.0667 11.3001 19.85ZM22.9751 9.95C22.7251 10.2333 22.4001 10.4125 22.0001 10.4875C21.6001 10.5625 21.1834 10.425 20.7501 10.075C20.6168 9.94167 20.4543 9.8125 20.2626 9.6875C20.0709 9.5625 19.9001 9.45 19.7501 9.35C19.3001 9.05 19.0501 8.7 19.0001 8.3C18.9501 7.9 19.0168 7.54167 19.2001 7.225C19.3834 6.90833 19.6543 6.68333 20.0126 6.55C20.3709 6.41667 20.7418 6.46667 21.1251 6.7C21.4084 6.88333 21.7043 7.0875 22.0126 7.3125C22.3209 7.5375 22.6001 7.75 22.8501 7.95C23.2001 8.23333 23.3709 8.56667 23.3626 8.95C23.3543 9.33333 23.2251 9.66667 22.9751 9.95ZM18.7876 15.775C18.3959 15.825 18.0084 15.6833 17.6251 15.35C17.5918 15.3167 17.5459 15.2708 17.4876 15.2125C17.4293 15.1542 17.3751 15.1083 17.3251 15.075C16.9251 14.7417 16.7251 14.375 16.7251 13.975C16.7251 13.575 16.8418 13.225 17.0751 12.925C17.3084 12.625 17.6251 12.4292 18.0251 12.3375C18.4251 12.2458 18.8168 12.3583 19.2001 12.675C19.2834 12.7583 19.3793 12.8458 19.4876 12.9375C19.5959 13.0292 19.6918 13.1167 19.7751 13.2C20.1084 13.5333 20.2584 13.9 20.2251 14.3C20.1918 14.7 20.0418 15.0333 19.7751 15.3C19.5084 15.5667 19.1793 15.725 18.7876 15.775Z" fill="#808080"/>
</svg>
