<svg width="24" height="24" viewBox="0 0 24 24" fill="none" xmlns="http://www.w3.org/2000/svg">
<path d="M12 8.5C12.2167 8.5 12.3958 8.425 12.5375 8.275C12.6792 8.125 12.75 7.95 12.75 7.75C12.75 7.53333 12.6792 7.35417 12.5375 7.2125C12.3958 7.07083 12.2167 7 12 7C11.8 7 11.625 7.07083 11.475 7.2125C11.325 7.35417 11.25 7.53333 11.25 7.75C11.25 7.95 11.325 8.125 11.475 8.275C11.625 8.425 11.8 8.5 12 8.5ZM18.475 12C18.475 11.8167 18.4625 11.6417 18.4375 11.475C18.4125 11.3083 18.3667 11.1333 18.3 10.95C18.2 10.6833 18.2125 10.4292 18.3375 10.1875C18.4625 9.94583 18.6583 9.78333 18.925 9.7C19.2083 9.61667 19.475 9.64167 19.725 9.775C19.975 9.90833 20.1417 10.1167 20.225 10.4C20.3083 10.6667 20.3708 10.9292 20.4125 11.1875C20.4542 11.4458 20.475 11.7167 20.475 12C20.475 12.2833 20.4542 12.5583 20.4125 12.825C20.3708 13.0917 20.3083 13.35 20.225 13.6C20.1417 13.8667 19.975 14.0625 19.725 14.1875C19.475 14.3125 19.2167 14.3333 18.95 14.25C18.7 14.1667 18.5083 14.0083 18.375 13.775C18.2417 13.5417 18.2167 13.3 18.3 13.05C18.3667 12.8667 18.4125 12.6917 18.4375 12.525C18.4625 12.3583 18.475 12.1833 18.475 12ZM22 12C22 11.5 21.9458 11.0042 21.8375 10.5125C21.7292 10.0208 21.5667 9.55 21.35 9.1C21.2167 8.81667 21.1833 8.52917 21.25 8.2375C21.3167 7.94583 21.475 7.725 21.725 7.575C21.9583 7.44167 22.1958 7.4 22.4375 7.45C22.6792 7.5 22.8583 7.63333 22.975 7.85C23.3083 8.48333 23.5625 9.15 23.7375 9.85C23.9125 10.55 24 11.2667 24 12C24 12.7333 23.9125 13.4542 23.7375 14.1625C23.5625 14.8708 23.3083 15.5417 22.975 16.175C22.8583 16.3917 22.6792 16.5208 22.4375 16.5625C22.1958 16.6042 21.9583 16.5583 21.725 16.425C21.475 16.275 21.3167 16.0583 21.25 15.775C21.1833 15.4917 21.2167 15.2083 21.35 14.925C21.5667 14.475 21.7292 14 21.8375 13.5C21.9458 13 22 12.5 22 12ZM9 20C8.45 20 7.97917 19.8042 7.5875 19.4125C7.19583 19.0208 7 18.55 7 18V6C7 5.45 7.19583 4.97917 7.5875 4.5875C7.97917 4.19583 8.45 4 9 4H15C15.55 4 16.0208 4.19583 16.4125 4.5875C16.8042 4.97917 17 5.45 17 6V18C17 18.55 16.8042 19.0208 16.4125 19.4125C16.0208 19.8042 15.55 20 15 20H9ZM5.5 12C5.5 12.1833 5.5125 12.3583 5.5375 12.525C5.5625 12.6917 5.60833 12.8667 5.675 13.05C5.75833 13.3 5.73333 13.5417 5.6 13.775C5.46667 14.0083 5.275 14.1667 5.025 14.25C4.75833 14.3333 4.49583 14.3125 4.2375 14.1875C3.97917 14.0625 3.80833 13.8667 3.725 13.6C3.64167 13.35 3.58333 13.0917 3.55 12.825C3.51667 12.5583 3.5 12.2833 3.5 12C3.5 11.7167 3.52083 11.4458 3.5625 11.1875C3.60417 10.9292 3.66667 10.6667 3.75 10.4C3.83333 10.1167 4 9.90833 4.25 9.775C4.5 9.64167 4.76667 9.61667 5.05 9.7C5.31667 9.78333 5.5125 9.94583 5.6375 10.1875C5.7625 10.4292 5.775 10.6833 5.675 10.95C5.60833 11.1333 5.5625 11.3083 5.5375 11.475C5.5125 11.6417 5.5 11.8167 5.5 12ZM2 12C2 12.5 2.05417 13 2.1625 13.5C2.27083 14 2.43333 14.475 2.65 14.925C2.78333 15.2083 2.81667 15.4917 2.75 15.775C2.68333 16.0583 2.525 16.275 2.275 16.425C2.04167 16.5583 1.80417 16.6042 1.5625 16.5625C1.32083 16.5208 1.14167 16.3917 1.025 16.175C0.691667 15.5417 0.4375 14.8708 0.2625 14.1625C0.0875 13.4542 0 12.7333 0 12C0 11.2667 0.0875 10.55 0.2625 9.85C0.4375 9.15 0.691667 8.48333 1.025 7.85C1.14167 7.63333 1.32083 7.5 1.5625 7.45C1.80417 7.4 2.04167 7.44167 2.275 7.575C2.525 7.725 2.68333 7.94583 2.75 8.2375C2.81667 8.52917 2.78333 8.81667 2.65 9.1C2.43333 9.55 2.27083 10.0208 2.1625 10.5125C2.05417 11.0042 2 11.5 2 12Z" fill="#808080"/>
</svg>
