<svg width="24" height="24" viewBox="0 0 24 24" fill="none" xmlns="http://www.w3.org/2000/svg">
<path d="M6 7C5.71667 7 5.47917 6.90417 5.2875 6.7125C5.09583 6.52083 5 6.28333 5 6V4C5 3.45 5.19583 2.97917 5.5875 2.5875C5.97917 2.19583 6.45 2 7 2H9C9.28333 2 9.52083 2.09583 9.7125 2.2875C9.90417 2.47917 10 2.71667 10 3C10 3.28333 9.90417 3.52083 9.7125 3.7125C9.52083 3.90417 9.28333 4 9 4H7V6C7 6.28333 6.90417 6.52083 6.7125 6.7125C6.52083 6.90417 6.28333 7 6 7ZM7 22C6.45 22 5.97917 21.8042 5.5875 21.4125C5.19583 21.0208 5 20.55 5 20V18C5 17.7167 5.09583 17.4792 5.2875 17.2875C5.47917 17.0958 5.71667 17 6 17C6.28333 17 6.52083 17.0958 6.7125 17.2875C6.90417 17.4792 7 17.7167 7 18V20H9C9.28333 20 9.52083 20.0958 9.7125 20.2875C9.90417 20.4792 10 20.7167 10 21C10 21.2833 9.90417 21.5208 9.7125 21.7125C9.52083 21.9042 9.28333 22 9 22H7ZM18 7C17.7167 7 17.4792 6.90417 17.2875 6.7125C17.0958 6.52083 17 6.28333 17 6V4H15C14.7167 4 14.4792 3.90417 14.2875 3.7125C14.0958 3.52083 14 3.28333 14 3C14 2.71667 14.0958 2.47917 14.2875 2.2875C14.4792 2.09583 14.7167 2 15 2H17C17.55 2 18.0208 2.19583 18.4125 2.5875C18.8042 2.97917 19 3.45 19 4V6C19 6.28333 18.9042 6.52083 18.7125 6.7125C18.5208 6.90417 18.2833 7 18 7ZM15 22C14.7167 22 14.4792 21.9042 14.2875 21.7125C14.0958 21.5208 14 21.2833 14 21C14 20.7167 14.0958 20.4792 14.2875 20.2875C14.4792 20.0958 14.7167 20 15 20H17V18C17 17.7167 17.0958 17.4792 17.2875 17.2875C17.4792 17.0958 17.7167 17 18 17C18.2833 17 18.5208 17.0958 18.7125 17.2875C18.9042 17.4792 19 17.7167 19 18V20C19 20.55 18.8042 21.0208 18.4125 21.4125C18.0208 21.8042 17.55 22 17 22H15Z" fill="#9198A0"/>
</svg>
