<svg width="24" height="24" viewBox="0 0 24 24" fill="none" xmlns="http://www.w3.org/2000/svg">
<path d="M10.5875 21.4125C10.1958 21.0208 10 20.55 10 20C10 19.65 10.0917 19.325 10.275 19.025C10.4583 18.725 10.7 18.4833 11 18.3V16H8C7.45 16 6.97917 15.8041 6.5875 15.4125C6.19583 15.0208 6 14.55 6 14V11.7C5.7 11.55 5.45833 11.325 5.275 11.025C5.09167 10.725 5 10.3833 5 9.99995C5 9.44995 5.19583 8.97912 5.5875 8.58745C5.97917 8.19578 6.45 7.99995 7 7.99995C7.55 7.99995 8.02083 8.19578 8.4125 8.58745C8.80417 8.97912 9 9.44995 9 9.99995C9 10.3833 8.90833 10.7166 8.725 11C8.54167 11.2833 8.3 11.5166 8 11.7V14H11V5.99995H10C9.8 5.99995 9.65 5.90828 9.55 5.72495C9.45 5.54162 9.46667 5.36662 9.6 5.19995L11.6 2.52495C11.7 2.39162 11.8333 2.32495 12 2.32495C12.1667 2.32495 12.3 2.39162 12.4 2.52495L14.4 5.19995C14.5333 5.36662 14.55 5.54162 14.45 5.72495C14.35 5.90828 14.2 5.99995 14 5.99995H13V14H16V12H15.5C15.3667 12 15.25 11.95 15.15 11.85C15.05 11.75 15 11.6333 15 11.5V8.49995C15 8.36662 15.05 8.24995 15.15 8.14995C15.25 8.04995 15.3667 7.99995 15.5 7.99995H18.5C18.6333 7.99995 18.75 8.04995 18.85 8.14995C18.95 8.24995 19 8.36662 19 8.49995V11.5C19 11.6333 18.95 11.75 18.85 11.85C18.75 11.95 18.6333 12 18.5 12H18V14C18 14.55 17.8042 15.0208 17.4125 15.4125C17.0208 15.8041 16.55 16 16 16H13V18.3C13.3167 18.4666 13.5625 18.7 13.7375 19C13.9125 19.3 14 19.6333 14 20C14 20.55 13.8042 21.0208 13.4125 21.4125C13.0208 21.8041 12.55 21.9999 12 21.9999C11.45 21.9999 10.9792 21.8041 10.5875 21.4125Z" fill="#808080"/>
</svg>
